<svg id="Layer_1" data-name="Layer 1" xmlns="http://www.w3.org/2000/svg" viewBox="0 0 1731.57 622.7"><defs><style>.cls-1,.cls-2{fill:#3c55a6;}.cls-2{font-size:500px;font-family:TitilliumWeb-Regular, Titillium Web;}</style></defs><title>logo-lapis</title><path class="cls-1" d="M367.88,263.92l10-120.52L175.45,15.46,74,178.86l26.05,95.52L51.25,250,15.31,362.74,80,527.22H398.47L527.22,397.39V192L380.88,228.59Zm76.82,89,52.52-87.53v105ZM428,322.45l-17.58-70.32,70.32-17.58Zm-209.57-131-104-20.67,62-99.91Zm31.36-1.17L208.52,71.85l123.12,77.79ZM124.33,365.9,93.76,304.76l61.14,30.57Zm-33.57-.06L50,352.57,63.3,310.93Zm-33.94,20.5,48.4,15.77v95.11h-4.78Zm78.4,110.88V397.43l30-30V497.22Zm60,0V322l-59.14-29.57-25-91.73,116.32,23.11,27.26,273.46Zm62-277.17,87.89-43.58L329,369.64,284.2,491.25ZM314,497.22l75.51-205.13,16.69,66.76L323.7,497.22Zm72,0H358.62l70.3-118,55.63,18.55Z" transform="translate(-15.22 -2.78)"/><path class="cls-1" d="M467.22,166.22v-30h30v-30h-30v-30h-30v30h-30v30h30v30Z" transform="translate(-15.22 -2.78)"/><path class="cls-1" d="M15.22,75.22h30v30h30v-30h30v-30h-30v-30h-30v30h-30Z" transform="translate(-15.22 -2.78)"/><path class="cls-1" d="M15.22,136.22h30v30h-30Z" transform="translate(-15.22 -2.78)"/><path class="cls-1" d="M317.22,46.22h30v30h-30Z" transform="translate(-15.22 -2.78)"/><path class="cls-1" d="M497.22,46.22h30v30h-30Z" transform="translate(-15.22 -2.78)"/><text class="cls-2" transform="translate(544.61 423)">Lapis</text></svg>