<?xml version="1.0" encoding="utf-8"?>
<!-- Generator: Adobe Illustrator 23.0.2, SVG Export Plug-In . SVG Version: 6.00 Build 0)  -->
<svg version="1.1" id="Layer_1" xmlns="http://www.w3.org/2000/svg" xmlns:xlink="http://www.w3.org/1999/xlink" x="0px" y="0px"
	 viewBox="0 0 1641.9 551.4" style="enable-background:new 0 0 1641.9 551.4;" xml:space="preserve">
<style type="text/css">
	.st0{fill:#FFFFFF;}
	.st1{font-family:'TitilliumWeb-Regular';}
	.st2{font-size:500px;}
</style>
<title>logo-white</title>
<path class="st0" d="M352.7,261.1l10-120.5L160.2,12.7L58.8,176.1l26.1,95.5L36,247.2L0.1,360l64.7,164.5h318.5L512,394.6V189.2
	l-146.3,36.6L352.7,261.1z M429.5,350.1l52.5-87.5v105L429.5,350.1z M412.8,319.7l-17.6-70.3l70.3-17.6L412.8,319.7z M203.2,188.7
	L99.2,168l62-99.9L203.2,188.7z M234.6,187.5L193.3,69.1l123.1,77.8L234.6,187.5z M109.1,363.1L78.5,302l61.1,30.6L109.1,363.1z
	 M75.5,363.1l-40.8-13.3l13.3-41.6L75.5,363.1z M41.6,383.6L90,399.3v95.1h-4.8L41.6,383.6z M120,494.4v-99.8l30-30v129.8H120z
	 M180,494.4V319.2l-59.1-29.6l-25-91.7L212.2,221l27.3,273.5L180,494.4z M242,217.3l87.9-43.6l-16.1,193.2L269,488.5L242,217.3z
	 M298.8,494.4l75.5-205.1l16.7,66.8l-82.5,138.4H298.8z M370.8,494.4h-27.4l70.3-118l55.6,18.5L370.8,494.4z"/>
<path class="st0" d="M452,163.4v-30h30v-30h-30v-30h-30v30h-30v30h30v30H452z"/>
<path class="st0" d="M0,72.4h30v30h30v-30h30v-30H60v-30H30v30H0L0,72.4z"/>
<path class="st0" d="M0,133.4h30v30H0L0,133.4z"/>
<path class="st0" d="M302,43.4h30v30h-30V43.4z"/>
<path class="st0" d="M482,43.4h30v30h-30L482,43.4z"/>
<text transform="matrix(1 0 0 1 544.61 423)" class="st0 st1 st2">Lapis</text>
</svg>
